<svg width="32" height="32" viewBox="0 0 32 32" fill="none" xmlns="http://www.w3.org/2000/svg">
<g clip-path="url(#clip0_0_33)">
<path d="M23.4668 12.64L25.9202 8.40005C26.1335 7.98671 25.9735 7.48005 25.5735 7.26671C25.1868 7.06671 24.7068 7.18671 24.4668 7.56005L21.9602 11.88C18.1468 10.2667 13.8535 10.2667 10.0402 11.88L7.5335 7.56005C7.28016 7.17338 6.76016 7.05338 6.3735 7.29338C6.00016 7.53338 5.88016 8.01338 6.08016 8.40005L8.5335 12.64C4.40016 15 1.70683 19.2534 1.3335 24H30.6668C30.2935 19.2534 27.6002 15 23.4668 12.64ZM9.3335 20.3334C8.4135 20.3334 7.66683 19.5867 7.66683 18.6667C7.66683 17.7467 8.4135 17 9.3335 17C10.2535 17 11.0002 17.7467 11.0002 18.6667C11.0002 19.5867 10.2535 20.3334 9.3335 20.3334ZM22.6668 20.3334C21.7468 20.3334 21.0002 19.5867 21.0002 18.6667C21.0002 17.7467 21.7468 17 22.6668 17C23.5868 17 24.3335 17.7467 24.3335 18.6667C24.3335 19.5867 23.5868 20.3334 22.6668 20.3334Z" fill="black"/>
</g>
<defs>
<clipPath id="clip0_0_33">
<rect width="32" height="32" fill="white"/>
</clipPath>
</defs>
</svg>
