<svg width="32" height="32" viewBox="0 0 32 32" fill="none" xmlns="http://www.w3.org/2000/svg">
<g clip-path="url(#clip0_0_34)">
<path d="M24.0002 17.3333C25.4668 17.3333 26.6668 18.5333 26.6668 20C26.6668 21.4666 25.4668 22.6666 24.0002 22.6666C22.5335 22.6666 21.3335 21.4666 21.3335 20C21.3335 18.5333 22.5335 17.3333 24.0002 17.3333ZM13.3335 20C13.3335 21.4666 14.5335 22.6666 16.0002 22.6666C17.4668 22.6666 18.6668 21.4666 18.6668 20C18.6668 18.5333 17.4668 17.3333 16.0002 17.3333C14.5335 17.3333 13.3335 18.5333 13.3335 20ZM5.3335 20C5.3335 21.4666 6.5335 22.6666 8.00016 22.6666C9.46683 22.6666 10.6668 21.4666 10.6668 20C10.6668 18.5333 9.46683 17.3333 8.00016 17.3333C6.5335 17.3333 5.3335 18.5333 5.3335 20ZM10.6668 12C10.6668 10.5333 9.46683 9.33329 8.00016 9.33329C6.5335 9.33329 5.3335 10.5333 5.3335 12C5.3335 13.4666 6.5335 14.6666 8.00016 14.6666C9.46683 14.6666 10.6668 13.4666 10.6668 12ZM13.3335 12C13.3335 13.4666 14.5335 14.6666 16.0002 14.6666C17.4668 14.6666 18.6668 13.4666 18.6668 12C18.6668 10.5333 17.4668 9.33329 16.0002 9.33329C14.5335 9.33329 13.3335 10.5333 13.3335 12ZM21.3335 12C21.3335 13.4666 22.5335 14.6666 24.0002 14.6666C25.4668 14.6666 26.6668 13.4666 26.6668 12C26.6668 10.5333 25.4668 9.33329 24.0002 9.33329C22.5335 9.33329 21.3335 10.5333 21.3335 12Z" fill="black"/>
</g>
<defs>
<clipPath id="clip0_0_34">
<rect width="32" height="32" fill="white" transform="translate(0 32) rotate(-90)"/>
</clipPath>
</defs>
</svg>
