<svg width="202" height="32" viewBox="0 0 202 32" fill="none" xmlns="http://www.w3.org/2000/svg">
<g clip-path="url(#clip0_159_225)">
<path d="M4.58151 8.84128C8.41931 6.62553 13.194 7.50261 16.0195 10.6991L19.2375 8.84126C23.6186 6.31184 29.2208 7.81291 31.7502 12.194C34.2797 16.5752 32.7786 22.1773 28.3975 24.7068C24.5597 26.9225 19.7849 26.0455 16.9594 22.8489L13.7415 24.7068C9.36033 27.2363 3.75819 25.7352 1.22873 21.354C-1.30072 16.9729 0.200368 11.3707 4.58151 8.84128ZM20.2449 20.952C21.9657 22.4233 24.4931 22.7302 26.5655 21.5337C28.6378 20.3372 29.6357 17.995 29.2219 15.7692L20.2449 20.952ZM5.58907 20.952C7.30978 22.4233 9.83715 22.7302 11.9095 21.5337L27.3899 12.5961C25.6692 11.1248 23.1418 10.8179 21.0695 12.0144L5.58907 20.952ZM6.41351 12.0144C4.34117 13.2109 3.34324 15.553 3.75708 17.7789L12.7339 12.5961C11.0132 11.1248 8.48584 10.8179 6.41351 12.0144Z" fill="white"/>
<path d="M182.253 7.42794H186.448L193.534 24.2552L190.149 24.9593L182.253 7.42794ZM201.818 7.42794L190.537 32H186.413L191.242 22.3894L197.623 7.42794H201.818Z" fill="white"/>
<path d="M169.949 25.3465C168.351 25.3465 166.882 24.9593 165.542 24.1848C164.226 23.4103 163.168 22.3425 162.369 20.9813C161.594 19.5966 161.206 18.0125 161.206 16.2288C161.206 14.3982 161.605 12.8023 162.405 11.4411C163.204 10.0565 164.285 8.97689 165.648 8.20241C167.011 7.42793 168.539 7.0407 170.231 7.0407C172.111 7.0407 173.603 7.4514 174.708 8.27282C175.813 9.09423 176.6 10.1973 177.07 11.5819C177.54 12.9666 177.775 14.5156 177.775 16.2288C177.775 17.191 177.634 18.2119 177.352 19.2915C177.07 20.3476 176.623 21.3333 176.012 22.2486C175.425 23.1639 174.626 23.9149 173.615 24.5016C172.628 25.0649 171.406 25.3465 169.949 25.3465ZM171.147 22.1078C172.464 22.1078 173.58 21.8614 174.496 21.3685C175.437 20.8522 176.142 20.1481 176.612 19.2563C177.105 18.3645 177.352 17.3553 177.352 16.2288C177.352 14.985 177.105 13.9288 176.612 13.0605C176.118 12.1687 175.413 11.4881 174.496 11.0187C173.58 10.5258 172.464 10.2794 171.147 10.2794C169.267 10.2794 167.81 10.8309 166.776 11.934C165.742 13.037 165.225 14.4686 165.225 16.2288C165.225 17.3788 165.472 18.3997 165.965 19.2915C166.482 20.1833 167.187 20.8757 168.08 21.3685C168.973 21.8614 169.996 22.1078 171.147 22.1078ZM177.352 7.42793H181.3V24.9593H177.634C177.634 24.9593 177.611 24.7363 177.563 24.2904C177.516 23.8445 177.469 23.3047 177.422 22.6711C177.375 22.0139 177.352 21.392 177.352 20.8053V7.42793Z" fill="white"/>
<path d="M153.497 22.0022L152.334 21.967L157.445 7.42794H161.746L154.907 24.9593H151.206L145.741 10.3498H146.975L141.37 24.9593H137.668L130.97 7.42794H135.271L140.242 22.0022H139.078L144.084 7.42794H148.667L153.497 22.0022Z" fill="white"/>
<path d="M121.099 7.42793H125.012V24.9593H121.099V7.42793ZM131.358 10.7723C130.089 10.7723 128.996 11.0422 128.079 11.5819C127.186 12.1217 126.469 12.7789 125.929 13.5533C125.388 14.3278 125.012 15.0788 124.801 15.8064L124.766 13.835C124.789 13.5768 124.871 13.1896 125.012 12.6733C125.153 12.1335 125.365 11.5467 125.647 10.9131C125.952 10.2794 126.352 9.66922 126.845 9.0825C127.363 8.47231 127.985 7.97946 128.714 7.60395C129.466 7.22845 130.347 7.0407 131.358 7.0407V10.7723Z" fill="white"/>
<path d="M115.494 19.1859H119.266C119.078 20.3828 118.608 21.4507 117.856 22.3894C117.127 23.3047 116.128 24.0323 114.859 24.572C113.59 25.0884 112.074 25.3465 110.312 25.3465C108.314 25.3465 106.528 24.9827 104.953 24.2552C103.378 23.5042 102.145 22.4481 101.252 21.0869C100.358 19.7257 99.9119 18.1063 99.9119 16.2288C99.9119 14.3748 100.347 12.7554 101.216 11.3707C102.086 9.98606 103.284 8.91822 104.812 8.16721C106.363 7.4162 108.149 7.0407 110.171 7.0407C112.262 7.0407 114.001 7.4162 115.388 8.16721C116.798 8.89475 117.844 9.99779 118.526 11.4763C119.207 12.9314 119.489 14.7737 119.372 17.0033H103.896C104.013 17.989 104.33 18.8808 104.847 19.6788C105.388 20.4532 106.116 21.0634 107.033 21.5093C107.95 21.9318 109.019 22.143 110.241 22.143C111.604 22.143 112.744 21.8731 113.661 21.3333C114.601 20.7935 115.212 20.0777 115.494 19.1859ZM110.065 10.209C108.467 10.209 107.151 10.608 106.116 11.4059C105.082 12.1804 104.413 13.1778 104.107 14.3982H115.423C115.329 13.084 114.801 12.0631 113.837 11.3355C112.873 10.5845 111.616 10.209 110.065 10.209Z" fill="white"/>
<path d="M94.3298 24.9593V14.8207C94.3298 13.8819 94.1652 13.1074 93.8362 12.4972C93.5307 11.8636 93.0489 11.3825 92.3908 11.0539C91.7328 10.7253 90.8632 10.5611 89.7821 10.5611C88.701 10.5611 87.7139 10.7957 86.8208 11.2651C85.9277 11.711 85.1991 12.3095 84.6351 13.0605C84.071 13.8115 83.742 14.6447 83.648 15.56L83.6127 13.5886C83.7302 12.7437 83.9888 11.934 84.3883 11.1595C84.7878 10.3616 85.3166 9.6575 85.9747 9.0473C86.6328 8.43711 87.4083 7.95599 88.3014 7.60396C89.1945 7.22846 90.1816 7.0407 91.2627 7.0407C92.2733 7.0407 93.2016 7.18152 94.0477 7.46315C94.9173 7.74477 95.6576 8.16722 96.2687 8.73047C96.9033 9.27026 97.385 9.95086 97.7141 10.7723C98.0666 11.5702 98.2429 12.4972 98.2429 13.5534V24.9593H94.3298ZM79.9464 24.9593V0.387242H83.8595V24.9593H79.9464Z" fill="white"/>
<path d="M65.8698 7.42795H78.279V10.6315H65.8698V7.42795ZM70.1002 2.71068H74.0486V24.9593H70.1002V2.71068Z" fill="white"/>
<path d="M64.5671 0V3.76677H59.8784V0H64.5671ZM60.2309 7.42794H64.1793V24.9593H60.2309V7.42794Z" fill="white"/>
<path d="M54.3789 19.1859H58.151C57.963 20.3828 57.4929 21.4507 56.7409 22.3894C56.0123 23.3047 55.0134 24.0323 53.7443 24.572C52.4752 25.0884 50.9593 25.3465 49.1966 25.3465C47.1989 25.3465 45.4128 24.9827 43.8381 24.2552C42.2635 23.5042 41.0296 22.4481 40.1365 21.0869C39.2434 19.7257 38.7969 18.1063 38.7969 16.2288C38.7969 14.3748 39.2317 12.7554 40.1013 11.3707C40.9709 9.98606 42.1695 8.91822 43.6971 8.16721C45.2483 7.4162 47.0344 7.0407 49.0556 7.0407C51.1473 7.0407 52.8865 7.4162 54.2731 8.16721C55.6833 8.89475 56.7291 9.99779 57.4107 11.4763C58.0922 12.9314 58.3743 14.7737 58.2568 17.0033H42.7805C42.898 17.989 43.2153 18.8808 43.7324 19.6788C44.2729 20.4532 45.0015 21.0634 45.9181 21.5093C46.8347 21.9318 47.904 22.143 49.1261 22.143C50.4893 22.143 51.6291 21.8731 52.5457 21.3333C53.4858 20.7935 54.0969 20.0777 54.3789 19.1859ZM48.9499 10.209C47.3517 10.209 46.0356 10.608 45.0015 11.4059C43.9674 12.1804 43.2976 13.1778 42.992 14.3982H54.3084C54.2144 13.084 53.6856 12.0631 52.722 11.3355C51.7584 10.5845 50.501 10.209 48.9499 10.209Z" fill="white"/>
</g>
<defs>
<clipPath id="clip0_159_225">
<rect width="202" height="32" fill="white"/>
</clipPath>
</defs>
</svg>
