<svg width="56" height="56" viewBox="0 0 56 56" fill="none" xmlns="http://www.w3.org/2000/svg">
<path d="M39.0894 17.5408C37.0498 16.605 34.8626 15.9155 32.5759 15.5206C32.5342 15.513 32.4926 15.532 32.4712 15.5701C32.1899 16.0704 31.8783 16.723 31.6601 17.236C29.2005 16.8678 26.7536 16.8678 24.3444 17.236C24.1262 16.7116 23.8033 16.0704 23.5208 15.5701C23.4993 15.5333 23.4577 15.5142 23.4161 15.5206C21.1305 15.9142 18.9434 16.6037 16.9026 17.5408C16.8849 17.5484 16.8698 17.5611 16.8597 17.5776C12.7112 23.7754 11.5747 29.8209 12.1322 35.7914C12.1348 35.8206 12.1512 35.8486 12.1739 35.8664C14.9109 37.8764 17.5623 39.0967 20.1644 39.9055C20.206 39.9182 20.2501 39.903 20.2766 39.8687C20.8922 39.0281 21.4409 38.1418 21.9113 37.2098C21.9391 37.1552 21.9126 37.0904 21.8558 37.0688C20.9855 36.7387 20.1568 36.3362 19.3596 35.8791C19.2966 35.8422 19.2915 35.7521 19.3495 35.7089C19.5173 35.5832 19.6851 35.4524 19.8453 35.3203C19.8743 35.2962 19.9146 35.2911 19.9487 35.3064C25.1857 37.6974 30.8554 37.6974 36.0306 35.3064C36.0647 35.2899 36.1051 35.2949 36.1353 35.3191C36.2955 35.4511 36.4633 35.5832 36.6323 35.7089C36.6903 35.7521 36.6865 35.8422 36.6235 35.8791C35.8263 36.345 34.9976 36.7387 34.126 37.0676C34.0693 37.0892 34.044 37.1552 34.0718 37.2098C34.5523 38.1405 35.101 39.0268 35.7052 39.8674C35.7304 39.903 35.7758 39.9182 35.8175 39.9055C38.4322 39.0967 41.0835 37.8764 43.8206 35.8664C43.8446 35.8486 43.8597 35.8219 43.8622 35.7927C44.5294 28.8901 42.7447 22.8942 39.131 17.5789C39.1221 17.5611 39.107 17.5484 39.0894 17.5408ZM22.6934 32.156C21.1167 32.156 19.8175 30.7085 19.8175 28.9308C19.8175 27.1531 21.0915 25.7055 22.6934 25.7055C24.3078 25.7055 25.5944 27.1658 25.5692 28.9308C25.5692 30.7085 24.2952 32.156 22.6934 32.156ZM33.3263 32.156C31.7497 32.156 30.4505 30.7085 30.4505 28.9308C30.4505 27.1531 31.7244 25.7055 33.3263 25.7055C34.9408 25.7055 36.2274 27.1658 36.2022 28.9308C36.2022 30.7085 34.9408 32.156 33.3263 32.156Z" fill="white"/>
</svg>
