<svg width="24" height="24" viewBox="0 0 24 24" fill="none" xmlns="http://www.w3.org/2000/svg">
<g clip-path="url(#clip0_76_353)">
<g clip-path="url(#clip1_76_353)">
<path d="M22.4398 7.79786C21.9502 6.62017 20.9585 5.34873 20.1798 4.94687C20.8136 6.18929 21.1804 7.43561 21.3205 8.36575C21.3205 8.36758 21.3212 8.37212 21.3227 8.3845C20.0489 5.20951 17.889 3.92926 16.1252 1.1417C16.0361 1.00075 15.9468 0.85942 15.8598 0.710452C15.8155 0.634372 15.7742 0.556628 15.7358 0.477389C15.6625 0.335913 15.606 0.186371 15.5674 0.0317953C15.5676 0.0244774 15.5652 0.017323 15.5604 0.0117374C15.5557 0.00615177 15.549 0.00253868 15.5418 0.00160783C15.5349 -0.000373182 15.5275 -0.000373182 15.5206 0.00160783C15.519 0.00217033 15.5167 0.00399845 15.515 0.0046547C15.5125 0.00563908 15.5094 0.00788908 15.5068 0.0093422C15.508 0.0076547 15.5107 0.00385783 15.5115 0.0029672C12.6816 1.66028 11.7216 4.72614 11.6334 6.26003C10.5034 6.33772 9.42293 6.75406 8.53298 7.45478C8.43981 7.37608 8.3424 7.30253 8.24119 7.23447C7.98442 6.33615 7.97351 5.38538 8.20959 4.4814C7.05234 5.00833 6.15225 5.84125 5.49787 6.57672H5.49267C5.04609 6.01108 5.07759 4.14517 5.10305 3.75559C5.0977 3.73145 4.76991 3.92575 4.72697 3.95504C4.3329 4.23633 3.96449 4.55194 3.62606 4.89817C3.24095 5.28871 2.88907 5.71069 2.57409 6.15972C2.57409 6.16028 2.57377 6.16094 2.57358 6.1615C2.57358 6.16089 2.57391 6.16028 2.57409 6.15972C1.8497 7.18625 1.33595 8.34618 1.06252 9.57245C1.05713 9.59687 1.05258 9.62219 1.04733 9.64679C1.02614 9.74598 0.949828 10.2421 0.936469 10.3499C0.935438 10.3582 0.934969 10.3662 0.933984 10.3745C0.835324 10.8874 0.774224 11.4069 0.751172 11.9287C0.751172 11.9479 0.75 11.967 0.75 11.9862C0.750188 18.2072 5.79394 23.2501 12.0154 23.2501C17.5872 23.2501 22.2135 19.2053 23.1192 13.8924C23.1383 13.7482 23.1536 13.6033 23.1704 13.4578C23.3943 11.5261 23.1456 9.49572 22.4398 7.79786ZM9.45563 16.6148C9.50831 16.6399 9.55781 16.6674 9.61191 16.6916C9.61416 16.6931 9.61725 16.6949 9.61955 16.6963C9.56449 16.67 9.50984 16.6428 9.45563 16.6148ZM21.3236 8.38726L21.3221 8.37634C21.3227 8.38033 21.3234 8.3845 21.324 8.38848L21.3236 8.38726Z" fill="url(#paint0_linear_76_353)"/>
<path d="M22.4397 7.79776C21.9501 6.62007 20.9584 5.34864 20.1797 4.94678C20.8135 6.1892 21.1803 7.43551 21.3204 8.36565C21.3204 8.36293 21.321 8.3679 21.3221 8.37625C21.3227 8.38023 21.3234 8.3844 21.324 8.38839C22.3869 11.2698 21.8078 14.1999 20.9734 15.9903C19.6825 18.7607 16.5571 21.5999 11.6652 21.4614C6.37978 21.3117 1.7235 17.39 0.854297 12.2536C0.695906 11.4436 0.854297 11.0323 0.933984 10.3746C0.836906 10.8816 0.799922 11.0281 0.751172 11.9289C0.751172 11.9481 0.75 11.9671 0.75 11.9864C0.750094 18.2071 5.79384 23.25 12.0153 23.25C17.5871 23.25 22.2134 19.2052 23.1191 13.8923C23.1382 13.7481 23.1535 13.6032 23.1703 13.4577C23.3942 11.526 23.1455 9.49562 22.4397 7.79776Z" fill="url(#paint1_radial_76_353)"/>
<path d="M22.4397 7.79776C21.9501 6.62007 20.9584 5.34864 20.1797 4.94678C20.8135 6.1892 21.1803 7.43551 21.3204 8.36565C21.3204 8.36293 21.321 8.3679 21.3221 8.37625C21.3227 8.38023 21.3234 8.3844 21.324 8.38839C22.3869 11.2698 21.8078 14.1999 20.9734 15.9903C19.6825 18.7607 16.5571 21.5999 11.6652 21.4614C6.37978 21.3117 1.7235 17.39 0.854297 12.2536C0.695906 11.4436 0.854297 11.0323 0.933984 10.3746C0.836906 10.8816 0.799922 11.0281 0.751172 11.9289C0.751172 11.9481 0.75 11.9671 0.75 11.9864C0.750094 18.2071 5.79384 23.25 12.0153 23.25C17.5871 23.25 22.2134 19.2052 23.1191 13.8923C23.1382 13.7481 23.1535 13.6032 23.1703 13.4577C23.3942 11.526 23.1455 9.49562 22.4397 7.79776Z" fill="url(#paint2_radial_76_353)"/>
<path d="M16.9655 9.12184C16.9901 9.13909 17.0124 9.15625 17.0355 9.1734C16.7528 8.67164 16.4007 8.21224 15.9897 7.80878C12.4879 4.3074 15.0715 0.216811 15.5072 0.00906055C15.5084 0.00737305 15.5111 0.00357617 15.5119 0.00268555C12.682 1.66 11.722 4.72586 11.6338 6.25975C11.765 6.25065 11.8959 6.23964 12.0295 6.23964C14.1413 6.23964 15.9806 7.40073 16.9655 9.12184Z" fill="url(#paint3_radial_76_353)"/>
<path d="M12.0361 9.82097C12.0176 10.1012 11.0276 11.0675 10.6814 11.0675C7.47799 11.0675 6.95801 13.0051 6.95801 13.0051C7.0999 14.6368 8.23587 15.9805 9.61165 16.6915C9.67441 16.7239 9.73793 16.7532 9.80149 16.7822C9.91047 16.8304 10.0208 16.8756 10.1324 16.9175C10.6041 17.0845 11.0982 17.1798 11.5982 17.2002C17.2129 17.4635 18.3007 10.488 14.2488 8.4623C15.2864 8.28183 16.3635 8.69915 16.965 9.12169C15.9801 7.40072 14.1408 6.23962 12.0291 6.23962C11.8955 6.23962 11.7647 6.25064 11.6334 6.25973C10.5033 6.33742 9.42291 6.75376 8.53296 7.45448C8.70471 7.5998 8.89859 7.79405 9.30705 8.19642C10.0712 8.94956 12.0319 9.72947 12.0361 9.82097Z" fill="url(#paint4_radial_76_353)"/>
<path d="M12.0361 9.82097C12.0176 10.1012 11.0276 11.0675 10.6814 11.0675C7.47799 11.0675 6.95801 13.0051 6.95801 13.0051C7.0999 14.6368 8.23587 15.9805 9.61165 16.6915C9.67441 16.7239 9.73793 16.7532 9.80149 16.7822C9.91047 16.8304 10.0208 16.8756 10.1324 16.9175C10.6041 17.0845 11.0982 17.1798 11.5982 17.2002C17.2129 17.4635 18.3007 10.488 14.2488 8.4623C15.2864 8.28183 16.3635 8.69915 16.965 9.12169C15.9801 7.40072 14.1408 6.23962 12.0291 6.23962C11.8955 6.23962 11.7647 6.25064 11.6334 6.25973C10.5033 6.33742 9.42291 6.75376 8.53296 7.45448C8.70471 7.5998 8.89859 7.79405 9.30705 8.19642C10.0712 8.94956 12.0319 9.72947 12.0361 9.82097Z" fill="url(#paint5_radial_76_353)"/>
<path d="M8.00787 7.07982C8.08633 7.13043 8.16417 7.18199 8.24136 7.23451C7.98459 6.33619 7.97368 5.38542 8.20977 4.48145C7.05252 5.00837 6.15242 5.84129 5.49805 6.57676C5.55219 6.57521 7.1862 6.54582 8.00787 7.07982Z" fill="url(#paint6_radial_76_353)"/>
<path d="M0.854464 12.2536C1.72367 17.3901 6.37995 21.3118 11.6653 21.4614C16.5573 21.5999 19.6827 18.7605 20.9736 15.9904C21.808 14.1997 22.3871 11.2701 21.3242 8.38842L21.3238 8.3872L21.3223 8.37628C21.3211 8.36793 21.3204 8.36296 21.3206 8.36568C21.3206 8.36751 21.3213 8.37206 21.3228 8.38443C21.7224 10.9935 20.3952 13.5212 18.3204 15.2302L18.3142 15.2449C14.2714 18.5366 10.4029 17.2309 9.61962 16.6964C9.56457 16.67 9.50987 16.6427 9.45556 16.6147C7.09859 15.4884 6.1249 13.3411 6.33368 11.4996C4.34351 11.4996 3.6649 9.82101 3.6649 9.82101C3.6649 9.82101 5.45173 8.54699 7.80668 9.65503C9.98778 10.6813 12.0361 9.8211 12.0364 9.82101C12.0322 9.72951 10.0715 8.9496 9.30715 8.19651C8.89873 7.79414 8.70481 7.60012 8.53306 7.45457C8.43988 7.37587 8.34247 7.30232 8.24126 7.23426C8.16398 7.18188 8.08615 7.13031 8.00778 7.07957C7.18615 6.54557 5.55209 6.57496 5.49795 6.57637H5.49275C5.04617 6.01073 5.07767 4.14482 5.10312 3.75524C5.09778 3.7311 4.76998 3.9254 4.72704 3.9547C4.33297 4.23598 3.96457 4.55159 3.62614 4.89782C3.24101 5.28846 2.88913 5.71053 2.57417 6.15965C2.57417 6.16021 2.57384 6.16087 2.57365 6.16143C2.57365 6.16082 2.57398 6.16021 2.57417 6.15965C1.84978 7.18619 1.33602 8.34611 1.06259 9.57238C1.0572 9.59681 0.65712 11.3462 0.854464 12.2536Z" fill="url(#paint7_radial_76_353)"/>
<path d="M15.9894 7.80883C16.4004 8.21229 16.7525 8.67169 17.0352 9.17345C17.0972 9.22005 17.1552 9.2665 17.2043 9.31183C19.7582 11.665 18.4201 14.9931 18.3203 15.2303C20.395 13.5212 21.7222 10.9936 21.3227 8.38445C20.0489 5.20951 17.8889 3.92926 16.1251 1.1417C16.0361 1.00075 15.9468 0.85942 15.8598 0.710452C15.8155 0.634372 15.7741 0.556628 15.7357 0.477389C15.6625 0.335913 15.6059 0.186371 15.5673 0.0317953C15.5676 0.0244774 15.5651 0.017323 15.5604 0.0117374C15.5556 0.00615177 15.549 0.00253868 15.5417 0.00160783C15.5348 -0.000373182 15.5275 -0.000373182 15.5206 0.00160783C15.519 0.00217033 15.5166 0.00399845 15.515 0.0046547C15.5125 0.00563908 15.5093 0.00788908 15.5067 0.0093422C15.0712 0.216905 12.4876 4.3075 15.9894 7.80883Z" fill="url(#paint8_radial_76_353)"/>
<path d="M17.2038 9.31181C17.1546 9.26648 17.0967 9.22003 17.0347 9.17343C17.0118 9.15618 16.9893 9.13903 16.9647 9.12187C16.3632 8.69934 15.2861 8.28201 14.2484 8.46248C18.3004 10.4881 17.2126 17.4637 11.5979 17.2004C11.0979 17.18 10.6038 17.0847 10.1321 16.9177C10.0205 16.8757 9.91017 16.8306 9.80117 16.7824C9.73761 16.7534 9.67409 16.7241 9.61133 16.6917C9.61358 16.6932 9.61667 16.695 9.61897 16.6964C10.4022 17.2307 14.2708 18.5365 18.3135 15.2448L18.3198 15.2302C18.4196 14.9932 19.7577 11.665 17.2038 9.31181Z" fill="url(#paint9_radial_76_353)"/>
<path d="M6.95843 13.0051C6.95843 13.0051 7.47841 11.0675 10.6818 11.0675C11.0281 11.0675 12.0182 10.1012 12.0365 9.82096C12.0548 9.54074 9.98805 10.6812 7.80682 9.65497C5.45187 8.54694 3.66504 9.82096 3.66504 9.82096C3.66504 9.82096 4.34365 11.4995 6.33382 11.4995C6.12509 13.341 7.09877 15.4886 9.4557 16.6147C9.50838 16.6399 9.55788 16.6674 9.61198 16.6915C8.23629 15.9805 7.10032 14.6368 6.95843 13.0051Z" fill="url(#paint10_radial_76_353)"/>
<path d="M22.4396 7.79786C21.95 6.62017 20.9583 5.34873 20.1796 4.94687C20.8134 6.18929 21.1802 7.43561 21.3203 8.36575C21.3203 8.36758 21.321 8.37212 21.3225 8.3845C20.0487 5.20951 17.8888 3.92926 16.125 1.1417C16.0359 1.00075 15.9466 0.85942 15.8596 0.710452C15.8153 0.634372 15.774 0.556628 15.7356 0.477389C15.6623 0.335913 15.6058 0.186371 15.5672 0.0317953C15.5675 0.0244774 15.565 0.017323 15.5602 0.0117374C15.5555 0.00615177 15.5489 0.00253868 15.5416 0.00160783C15.5347 -0.000373182 15.5274 -0.000373182 15.5205 0.00160783C15.5189 0.00217033 15.5165 0.00399845 15.5148 0.0046547C15.5123 0.00563908 15.5092 0.00788908 15.5066 0.0093422C15.5078 0.0076547 15.5105 0.00385783 15.5113 0.0029672C12.6814 1.66028 11.7214 4.72614 11.6332 6.26003C11.7645 6.25094 11.8953 6.23992 12.0289 6.23992C14.1408 6.23992 15.9801 7.40101 16.9649 9.12198C16.3634 8.69945 15.2863 8.28212 14.2486 8.46259C18.3005 10.4882 17.2127 17.4638 11.598 17.2005C11.0981 17.1801 10.6039 17.0848 10.1322 16.9178C10.0207 16.8758 9.91033 16.8307 9.80133 16.7825C9.73777 16.7535 9.67425 16.7242 9.61148 16.6918C9.61374 16.6933 9.61683 16.6951 9.61913 16.6965C9.56407 16.67 9.50938 16.6427 9.45506 16.6148C9.50775 16.6399 9.55725 16.6674 9.61134 16.6916C8.23556 15.9806 7.09959 14.6369 6.9577 13.0052C6.9577 13.0052 7.47769 11.0676 10.6811 11.0676C11.0274 11.0676 12.0174 10.1013 12.0358 9.82108C12.0316 9.72958 10.0709 8.94967 9.30656 8.19658C8.89814 7.7942 8.70422 7.60019 8.53247 7.45464C8.43929 7.37594 8.34188 7.30239 8.24067 7.23433C7.98391 6.33601 7.973 5.38524 8.20908 4.48126C7.05183 5.00819 6.15173 5.84111 5.49736 6.57658H5.49216C5.04558 6.01094 5.07708 4.14503 5.10253 3.75545C5.09719 3.73131 4.76939 3.92561 4.72645 3.9549C4.33238 4.23619 3.96398 4.55179 3.62555 4.89803C3.24054 5.28863 2.88878 5.71066 2.57391 6.15972C2.57391 6.16028 2.57358 6.16094 2.57339 6.1615C2.57339 6.16089 2.57372 6.16028 2.57391 6.15972C1.84952 7.18625 1.33576 8.34618 1.06233 9.57245C1.05694 9.59687 1.05239 9.62219 1.04714 9.64679C1.02595 9.74598 0.930609 10.2493 0.917297 10.3572C0.916266 10.3655 0.918281 10.349 0.917297 10.3572C0.830351 10.8773 0.774875 11.4022 0.751172 11.929C0.751172 11.9482 0.75 11.9672 0.75 11.9865C0.75 18.2072 5.79375 23.2501 12.0152 23.2501C17.587 23.2501 22.2133 19.2053 23.119 13.8924C23.1381 13.7482 23.1534 13.6033 23.1702 13.4578C23.3941 11.5261 23.1454 9.49572 22.4396 7.79786ZM21.322 8.37634C21.3226 8.38033 21.3233 8.3845 21.3239 8.38848L21.3235 8.38726L21.322 8.37634Z" fill="url(#paint11_linear_76_353)"/>
</g>
</g>
<defs>
<linearGradient id="paint0_linear_76_353" x1="1963.89" y1="360.374" x2="155.045" y2="2105.27" gradientUnits="userSpaceOnUse">
<stop offset="0.05" stop-color="#FFF44F"/>
<stop offset="0.37" stop-color="#FF980E"/>
<stop offset="0.53" stop-color="#FF3647"/>
<stop offset="0.7" stop-color="#E31587"/>
</linearGradient>
<radialGradient id="paint1_radial_76_353" cx="0" cy="0" r="1" gradientUnits="userSpaceOnUse" gradientTransform="translate(1573.81 -231.158) scale(2304.01 2342.81)">
<stop offset="0.13" stop-color="#FFBD4F"/>
<stop offset="0.28" stop-color="#FF980E"/>
<stop offset="0.47" stop-color="#FF3750"/>
<stop offset="0.78" stop-color="#EB0878"/>
<stop offset="0.86" stop-color="#E50080"/>
</radialGradient>
<radialGradient id="paint2_radial_76_353" cx="0" cy="0" r="1" gradientUnits="userSpaceOnUse" gradientTransform="translate(904.672 737.074) scale(2361.61 2342.81)">
<stop offset="0.3" stop-color="#960E18"/>
<stop offset="0.35" stop-color="#B11927" stop-opacity="0.74"/>
<stop offset="0.43" stop-color="#DB293D" stop-opacity="0.34"/>
<stop offset="0.5" stop-color="#F5334B" stop-opacity="0.09"/>
<stop offset="0.53" stop-color="#FF3750" stop-opacity="0"/>
</radialGradient>
<radialGradient id="paint3_radial_76_353" cx="0" cy="0" r="1" gradientUnits="userSpaceOnUse" gradientTransform="translate(270.915 -110.046) scale(756.236 1283.9)">
<stop offset="0.13" stop-color="#FFF44F"/>
<stop offset="0.53" stop-color="#FF980E"/>
</radialGradient>
<radialGradient id="paint4_radial_76_353" cx="0" cy="0" r="1" gradientUnits="userSpaceOnUse" gradientTransform="translate(234.718 1213.9) scale(1000.7 1096.78)">
<stop offset="0.35" stop-color="#3A8EE6"/>
<stop offset="0.67" stop-color="#9059FF"/>
<stop offset="1" stop-color="#C139E6"/>
</radialGradient>
<radialGradient id="paint5_radial_76_353" cx="0" cy="0" r="1" gradientUnits="userSpaceOnUse" gradientTransform="translate(474.591 368.177) scale(531.373 647.101)">
<stop offset="0.21" stop-color="#9059FF" stop-opacity="0"/>
<stop offset="0.97" stop-color="#6E008B" stop-opacity="0.6"/>
</radialGradient>
<radialGradient id="paint6_radial_76_353" cx="0" cy="0" r="1" gradientUnits="userSpaceOnUse" gradientTransform="translate(581.594 -270.825) scale(795.561 798.388)">
<stop offset="0.1" stop-color="#FFE226"/>
<stop offset="0.79" stop-color="#FF7139"/>
</radialGradient>
<radialGradient id="paint7_radial_76_353" cx="0" cy="0" r="1" gradientUnits="userSpaceOnUse" gradientTransform="translate(1773.28 -722.485) scale(3798.18 3188.36)">
<stop offset="0.11" stop-color="#FFF44F"/>
<stop offset="0.46" stop-color="#FF980E"/>
<stop offset="0.72" stop-color="#FF3647"/>
<stop offset="0.9" stop-color="#E31587"/>
</radialGradient>
<radialGradient id="paint8_radial_76_353" cx="0" cy="0" r="1" gradientUnits="userSpaceOnUse" gradientTransform="translate(295.348 46.9808) rotate(77.3946) scale(1205.03 5212.78)">
<stop stop-color="#FFF44F"/>
<stop offset="0.3" stop-color="#FF980E"/>
<stop offset="0.57" stop-color="#FF3647"/>
<stop offset="0.74" stop-color="#E31587"/>
</radialGradient>
<radialGradient id="paint9_radial_76_353" cx="0" cy="0" r="1" gradientUnits="userSpaceOnUse" gradientTransform="translate(182.495 -373.51) scale(2180.71 2142.4)">
<stop offset="0.14" stop-color="#FFF44F"/>
<stop offset="0.48" stop-color="#FF980E"/>
<stop offset="0.66" stop-color="#FF3647"/>
<stop offset="0.9" stop-color="#E31587"/>
</radialGradient>
<radialGradient id="paint10_radial_76_353" cx="0" cy="0" r="1" gradientUnits="userSpaceOnUse" gradientTransform="translate(1337.26 -325.723) scale(2621.14 2344.92)">
<stop offset="0.09" stop-color="#FFF44F"/>
<stop offset="0.63" stop-color="#FF980E"/>
</radialGradient>
<linearGradient id="paint11_linear_76_353" x1="1800.75" y1="325.499" x2="354.302" y2="1905.91" gradientUnits="userSpaceOnUse">
<stop offset="0.17" stop-color="#FFF44F" stop-opacity="0.8"/>
<stop offset="0.6" stop-color="#FFF44F" stop-opacity="0"/>
</linearGradient>
<clipPath id="clip0_76_353">
<rect width="24" height="24" fill="white"/>
</clipPath>
<clipPath id="clip1_76_353">
<rect width="24" height="24" fill="white"/>
</clipPath>
</defs>
</svg>
