<svg width="24" height="24" viewBox="0 0 24 24" fill="none" xmlns="http://www.w3.org/2000/svg">
<g clip-path="url(#clip0_76_269)">
<path d="M6.4877 18.4876H6.2627L5.1377 17.3726V17.1496L6.8627 15.4398H8.0627L8.23145 15.6071V16.7965L6.4877 18.4876Z" fill="#05BDBA"/>
<path d="M5.1377 5.79472V5.57171L6.2627 4.45667H6.4877L8.2127 6.1664V7.35578L8.0627 7.50445H6.8627L5.1377 5.79472Z" fill="#05BDBA"/>
<path d="M15.0938 14.8638H13.4437L13.3125 14.7337V10.9053C13.3125 10.2177 13.05 9.69738 12.225 9.6788C11.7937 9.66021 11.3062 9.6788 10.8 9.69738L10.725 9.77172V14.7151L10.5938 14.8452H8.94375L8.8125 14.7151V8.21066L8.94375 8.08057H12.6562C14.1 8.08057 15.2625 9.23278 15.2625 10.6638V14.7337L15.0938 14.8638Z" fill="#014847"/>
<path d="M6.7125 12.4106H0.13125L0 12.2805V10.6451L0.13125 10.515H6.7125L6.84375 10.6451V12.2805L6.7125 12.4106Z" fill="#05BDBA"/>
<path d="M23.8688 12.4106H17.2875L17.1562 12.2805V10.6451L17.2875 10.515H23.8688L24 10.6451V12.2805L23.8688 12.4106Z" fill="#05BDBA"/>
<path d="M11.0439 6.03628V1.13009L11.1939 1H12.8439L12.9752 1.13009V6.0177L12.8439 6.14779H11.1939L11.0439 6.03628Z" fill="#05BDBA"/>
<path d="M11.0439 21.7955V16.9079L11.1752 16.7778H12.8252L12.9564 16.9079V21.7955L12.8252 21.9256H11.1752L11.0439 21.7955Z" fill="#05BDBA"/>
</g>
<defs>
<clipPath id="clip0_76_269">
<rect width="24" height="21" fill="white" transform="translate(0 1)"/>
</clipPath>
</defs>
</svg>
