<svg width="1080" height="1080" viewBox="0 0 1080 1080" fill="none" xmlns="http://www.w3.org/2000/svg">
<path d="M308.91 385.873C383.388 342.823 476.047 359.864 530.88 421.97L593.329 385.873C678.35 336.728 787.068 365.893 836.155 451.015C885.242 536.136 856.111 644.981 771.09 694.126C696.612 737.177 603.953 720.136 549.12 658.03L486.671 694.127C401.65 743.272 292.933 714.107 243.845 628.985C194.758 543.863 223.888 435.018 308.91 385.873ZM612.88 621.175C646.272 649.761 695.321 655.722 735.538 632.476C775.754 609.229 795.12 563.722 787.089 520.477L612.88 621.175ZM328.463 621.174C361.856 649.76 410.903 655.722 451.119 632.476L751.537 458.826C718.144 430.24 669.097 424.278 628.881 447.524L328.463 621.174ZM344.463 447.524C304.246 470.77 284.88 516.277 292.911 559.523L467.118 458.826C433.726 430.24 384.679 424.278 344.463 447.524Z" fill="white"/>
</svg>
