<svg width="16" height="16" viewBox="0 0 16 16" fill="none" xmlns="http://www.w3.org/2000/svg">
<mask id="path-1-inside-1_130_309" fill="white">
<path d="M16 8C16 6.20305 15.395 4.45843 14.2825 3.04725C13.1701 1.63607 11.6149 0.640531 9.86756 0.221041C8.12026 -0.198449 6.28261 -0.0174567 4.65072 0.734854C3.01883 1.48717 1.68775 2.76698 0.871948 4.36808C0.0561492 5.96917 -0.19685 7.7983 0.153718 9.56072C0.504285 11.3231 1.438 12.9162 2.80441 14.0832C4.17083 15.2503 5.89035 15.9233 7.68592 15.9938C9.48149 16.0644 11.2485 15.5284 12.7023 14.4721L12.091 13.6308C10.8262 14.5497 9.28889 15.016 7.72675 14.9546C6.16461 14.8933 4.66862 14.3077 3.47984 13.2924C2.29106 12.2771 1.47873 10.8911 1.17373 9.35783C0.86874 7.82452 1.08885 6.23318 1.79859 4.84023C2.50834 3.44727 3.66639 2.33383 5.08613 1.67932C6.50587 1.02481 8.10463 0.867349 9.62478 1.23231C11.1449 1.59726 12.4979 2.46338 13.4658 3.69111C14.4337 4.91883 14.96 6.43665 14.96 8H16Z"/>
</mask>
<path d="M16 8C16 6.20305 15.395 4.45843 14.2825 3.04725C13.1701 1.63607 11.6149 0.640531 9.86756 0.221041C8.12026 -0.198449 6.28261 -0.0174567 4.65072 0.734854C3.01883 1.48717 1.68775 2.76698 0.871948 4.36808C0.0561492 5.96917 -0.19685 7.7983 0.153718 9.56072C0.504285 11.3231 1.438 12.9162 2.80441 14.0832C4.17083 15.2503 5.89035 15.9233 7.68592 15.9938C9.48149 16.0644 11.2485 15.5284 12.7023 14.4721L12.091 13.6308C10.8262 14.5497 9.28889 15.016 7.72675 14.9546C6.16461 14.8933 4.66862 14.3077 3.47984 13.2924C2.29106 12.2771 1.47873 10.8911 1.17373 9.35783C0.86874 7.82452 1.08885 6.23318 1.79859 4.84023C2.50834 3.44727 3.66639 2.33383 5.08613 1.67932C6.50587 1.02481 8.10463 0.867349 9.62478 1.23231C11.1449 1.59726 12.4979 2.46338 13.4658 3.69111C14.4337 4.91883 14.96 6.43665 14.96 8H16Z" stroke="white" stroke-width="2" mask="url(#path-1-inside-1_130_309)"/>
</svg>
