<svg width="336" height="336" viewBox="0 0 336 336" fill="none" xmlns="http://www.w3.org/2000/svg">
<path d="M27.664 82.976H25.368L43.232 49.656H48.608V86H43.232V58.112L44.408 58.392L29.344 86H23.688L8.624 58.448L9.8 58.168V86H4.424V49.656H9.8L27.664 82.976ZM65.3109 86.56C62.9215 86.56 60.7375 85.944 58.7589 84.712C56.7802 83.48 55.2122 81.7813 54.0549 79.616C52.8975 77.4133 52.3189 74.8933 52.3189 72.056C52.3189 69.2187 52.8975 66.7173 54.0549 64.552C55.2495 62.3493 56.8735 60.632 58.9269 59.4C60.9802 58.1307 63.2762 57.496 65.8149 57.496C68.6149 57.496 70.7802 58.1493 72.3109 59.456C73.8789 60.7627 74.9615 62.5173 75.5589 64.72C76.1935 66.9227 76.5109 69.368 76.5109 72.056C76.5109 73.5493 76.3242 75.136 75.9509 76.816C75.5775 78.496 74.9802 80.0827 74.1589 81.576C73.3375 83.0693 72.1989 84.2827 70.7429 85.216C69.2869 86.112 67.4762 86.56 65.3109 86.56ZM66.8229 81.912C68.8015 81.912 70.4629 81.4827 71.8069 80.624C73.1882 79.728 74.2149 78.5333 74.8869 77.04C75.5589 75.5467 75.8949 73.8853 75.8949 72.056C75.8949 70.0773 75.5402 68.3413 74.8309 66.848C74.1589 65.3547 73.1322 64.1973 71.7509 63.376C70.4069 62.5547 68.7642 62.144 66.8229 62.144C63.9109 62.144 61.6522 63.0773 60.0469 64.944C58.4789 66.8107 57.6949 69.1813 57.6949 72.056C57.6949 73.9973 58.0869 75.7147 58.8709 77.208C59.6549 78.664 60.7189 79.8213 62.0629 80.68C63.4442 81.5013 65.0309 81.912 66.8229 81.912ZM75.8949 58.056H81.2709V86H76.3429C76.3429 86 76.3055 85.664 76.2309 84.992C76.1562 84.2827 76.0815 83.4427 76.0069 82.472C75.9322 81.5013 75.8949 80.6427 75.8949 79.896V58.056ZM86.1547 46.856H91.4747V86H86.1547V46.856ZM111.635 58.056L96.8507 72.112L96.9627 68.752L112.699 86H105.923L91.5867 70.376L104.187 58.056H111.635ZM134.211 76.928H139.307C139.009 78.7573 138.299 80.4 137.179 81.856C136.059 83.312 134.585 84.4693 132.755 85.328C130.926 86.1867 128.779 86.616 126.315 86.616C123.403 86.616 120.809 86 118.531 84.768C116.254 83.536 114.462 81.8373 113.155 79.672C111.849 77.5067 111.195 74.9867 111.195 72.112C111.195 69.2 111.83 66.6613 113.099 64.496C114.369 62.2933 116.123 60.576 118.363 59.344C120.603 58.112 123.161 57.496 126.035 57.496C129.059 57.496 131.598 58.0933 133.651 59.288C135.705 60.4827 137.217 62.256 138.187 64.608C139.195 66.9227 139.606 69.816 139.419 73.288H116.515C116.702 74.968 117.206 76.4613 118.027 77.768C118.886 79.0747 120.006 80.1013 121.387 80.848C122.806 81.5947 124.43 81.968 126.259 81.968C128.313 81.968 130.03 81.5013 131.411 80.568C132.793 79.6347 133.726 78.4213 134.211 76.928ZM126.091 62.088C123.665 62.088 121.649 62.7413 120.043 64.048C118.438 65.3173 117.374 67.016 116.851 69.144H134.043C133.894 66.8667 133.073 65.1307 131.579 63.936C130.086 62.704 128.257 62.088 126.091 62.088ZM151.786 58.056H157.162V86H151.786V58.056ZM167.802 57.496C169.37 57.496 170.788 57.72 172.058 58.168C173.327 58.616 174.41 59.288 175.306 60.184C176.202 61.0427 176.892 62.1253 177.378 63.432C177.9 64.7013 178.162 66.1573 178.162 67.8V86H172.842V68.976C172.842 66.7733 172.3 65.1307 171.218 64.048C170.172 62.928 168.567 62.368 166.402 62.368C164.722 62.368 163.191 62.76 161.81 63.544C160.428 64.328 159.29 65.3733 158.394 66.68C157.535 67.9493 157.012 69.3867 156.826 70.992L156.77 67.912C156.956 66.4187 157.348 65.0373 157.946 63.768C158.58 62.4987 159.364 61.3973 160.298 60.464C161.268 59.4933 162.388 58.7653 163.658 58.28C164.927 57.7573 166.308 57.496 167.802 57.496ZM188.298 57.496C189.866 57.496 191.284 57.72 192.554 58.168C193.823 58.616 194.906 59.288 195.802 60.184C196.698 61.0427 197.388 62.1253 197.874 63.432C198.396 64.7013 198.658 66.1573 198.658 67.8V86H193.338V68.976C193.338 66.7733 192.796 65.1307 191.714 64.048C190.668 62.928 189.063 62.368 186.898 62.368C185.218 62.368 183.687 62.76 182.306 63.544C180.924 64.328 179.786 65.3733 178.89 66.68C178.031 67.9493 177.508 69.3867 177.322 70.992L177.266 67.856C177.452 66.3627 177.844 65 178.442 63.768C179.076 62.4987 179.879 61.3973 180.85 60.464C181.82 59.4933 182.94 58.7653 184.21 58.28C185.479 57.7573 186.842 57.496 188.298 57.496ZM224.468 76.928H229.564C229.265 78.7573 228.556 80.4 227.436 81.856C226.316 83.312 224.841 84.4693 223.012 85.328C221.182 86.1867 219.036 86.616 216.572 86.616C213.66 86.616 211.065 86 208.788 84.768C206.51 83.536 204.718 81.8373 203.412 79.672C202.105 77.5067 201.452 74.9867 201.452 72.112C201.452 69.2 202.086 66.6613 203.356 64.496C204.625 62.2933 206.38 60.576 208.62 59.344C210.86 58.112 213.417 57.496 216.292 57.496C219.316 57.496 221.854 58.0933 223.908 59.288C225.961 60.4827 227.473 62.256 228.444 64.608C229.452 66.9227 229.862 69.816 229.676 73.288H206.772C206.958 74.968 207.462 76.4613 208.284 77.768C209.142 79.0747 210.262 80.1013 211.644 80.848C213.062 81.5947 214.686 81.968 216.516 81.968C218.569 81.968 220.286 81.5013 221.668 80.568C223.049 79.6347 223.982 78.4213 224.468 76.928ZM216.348 62.088C213.921 62.088 211.905 62.7413 210.3 64.048C208.694 65.3173 207.63 67.016 207.108 69.144H224.3C224.15 66.8667 223.329 65.1307 221.836 63.936C220.342 62.704 218.513 62.088 216.348 62.088ZM15.064 153.56C12.6747 153.56 10.4907 152.944 8.512 151.712C6.53333 150.48 4.96533 148.781 3.808 146.616C2.65067 144.413 2.072 141.893 2.072 139.056C2.072 136.219 2.65067 133.717 3.808 131.552C5.00267 129.349 6.62667 127.632 8.68 126.4C10.7333 125.131 13.0293 124.496 15.568 124.496C18.368 124.496 20.5333 125.149 22.064 126.456C23.632 127.763 24.7147 129.517 25.312 131.72C25.9467 133.923 26.264 136.368 26.264 139.056C26.264 140.549 26.0773 142.136 25.704 143.816C25.3307 145.496 24.7333 147.083 23.912 148.576C23.0907 150.069 21.952 151.283 20.496 152.216C19.04 153.112 17.2293 153.56 15.064 153.56ZM16.576 148.912C18.5547 148.912 20.216 148.483 21.56 147.624C22.9413 146.728 23.968 145.533 24.64 144.04C25.312 142.547 25.648 140.885 25.648 139.056C25.648 137.077 25.2933 135.341 24.584 133.848C23.912 132.355 22.8853 131.197 21.504 130.376C20.16 129.555 18.5173 129.144 16.576 129.144C13.664 129.144 11.4053 130.077 9.8 131.944C8.232 133.811 7.448 136.181 7.448 139.056C7.448 140.997 7.84 142.715 8.624 144.208C9.408 145.664 10.472 146.821 11.816 147.68C13.1973 148.501 14.784 148.912 16.576 148.912ZM25.648 125.056H31.024V153H26.096C26.096 153 26.0587 152.664 25.984 151.992C25.9093 151.283 25.8347 150.443 25.76 149.472C25.6853 148.501 25.648 147.643 25.648 146.896V125.056ZM35.2358 125.056H40.6118V153H35.2358V125.056ZM51.2518 124.496C52.8198 124.496 54.2385 124.72 55.5078 125.168C56.7771 125.616 57.8598 126.288 58.7558 127.184C59.6518 128.043 60.3425 129.125 60.8278 130.432C61.3505 131.701 61.6118 133.157 61.6118 134.8V153H56.2918V135.976C56.2918 133.773 55.7505 132.131 54.6678 131.048C53.6225 129.928 52.0171 129.368 49.8518 129.368C48.1718 129.368 46.6411 129.76 45.2598 130.544C43.8785 131.328 42.7398 132.373 41.8438 133.68C40.9851 134.949 40.4625 136.387 40.2758 137.992L40.2198 134.912C40.4065 133.419 40.7985 132.037 41.3958 130.768C42.0305 129.499 42.8145 128.397 43.7478 127.464C44.7185 126.493 45.8385 125.765 47.1078 125.28C48.3771 124.757 49.7585 124.496 51.2518 124.496ZM86.8906 153.56C84.5012 153.56 82.3172 152.944 80.3386 151.712C78.3599 150.48 76.7919 148.781 75.6346 146.616C74.4772 144.413 73.8986 141.893 73.8986 139.056C73.8986 136.219 74.4772 133.717 75.6346 131.552C76.8292 129.349 78.4532 127.632 80.5066 126.4C82.5599 125.131 84.8559 124.496 87.3946 124.496C90.1946 124.496 92.3599 125.149 93.8906 126.456C95.4586 127.763 96.5412 129.517 97.1386 131.72C97.7732 133.923 98.0906 136.368 98.0906 139.056C98.0906 140.549 97.9039 142.136 97.5306 143.816C97.1572 145.496 96.5599 147.083 95.7386 148.576C94.9172 150.069 93.7786 151.283 92.3226 152.216C90.8666 153.112 89.0559 153.56 86.8906 153.56ZM88.4026 148.912C90.3812 148.912 92.0426 148.483 93.3866 147.624C94.7679 146.728 95.7946 145.533 96.4666 144.04C97.1386 142.547 97.4746 140.885 97.4746 139.056C97.4746 137.077 97.1199 135.341 96.4106 133.848C95.7386 132.355 94.7119 131.197 93.3306 130.376C91.9866 129.555 90.3439 129.144 88.4026 129.144C85.4906 129.144 83.2319 130.077 81.6266 131.944C80.0586 133.811 79.2746 136.181 79.2746 139.056C79.2746 140.997 79.6666 142.715 80.4506 144.208C81.2346 145.664 82.2986 146.821 83.6426 147.68C85.0239 148.501 86.6106 148.912 88.4026 148.912ZM97.4746 125.056H102.851V153H97.9226C97.9226 153 97.8852 152.664 97.8106 151.992C97.7359 151.283 97.6612 150.443 97.5866 149.472C97.5119 148.501 97.4746 147.643 97.4746 146.896V125.056ZM123.022 153.616C120.857 153.616 119.046 153.149 117.59 152.216C116.134 151.283 114.996 150.069 114.174 148.576C113.353 147.083 112.756 145.496 112.382 143.816C112.009 142.136 111.822 140.549 111.822 139.056C111.822 137.04 111.99 135.155 112.326 133.4C112.7 131.645 113.297 130.096 114.118 128.752C114.94 127.408 116.078 126.363 117.534 125.616C118.99 124.869 120.82 124.496 123.022 124.496C125.449 124.496 127.633 125.131 129.574 126.4C131.516 127.632 133.065 129.349 134.222 131.552C135.417 133.755 136.014 136.256 136.014 139.056C136.014 141.931 135.417 144.469 134.222 146.672C133.028 148.837 131.441 150.536 129.462 151.768C127.521 153 125.374 153.616 123.022 153.616ZM121.51 148.912C123.302 148.912 124.889 148.501 126.27 147.68C127.652 146.821 128.716 145.664 129.462 144.208C130.246 142.715 130.638 140.997 130.638 139.056C130.638 136.181 129.836 133.811 128.23 131.944C126.662 130.077 124.422 129.144 121.51 129.144C119.756 129.144 118.188 129.555 116.806 130.376C115.462 131.197 114.398 132.355 113.614 133.848C112.83 135.341 112.438 137.077 112.438 139.056C112.438 140.923 112.774 142.603 113.446 144.096C114.156 145.552 115.182 146.728 116.526 147.624C117.87 148.483 119.532 148.912 121.51 148.912ZM107.062 125.056H112.214L112.438 131.384V164.2H107.062V125.056ZM154.785 153.616C152.62 153.616 150.809 153.149 149.353 152.216C147.897 151.283 146.758 150.069 145.937 148.576C145.116 147.083 144.518 145.496 144.145 143.816C143.772 142.136 143.585 140.549 143.585 139.056C143.585 137.04 143.753 135.155 144.089 133.4C144.462 131.645 145.06 130.096 145.881 128.752C146.702 127.408 147.841 126.363 149.297 125.616C150.753 124.869 152.582 124.496 154.785 124.496C157.212 124.496 159.396 125.131 161.337 126.4C163.278 127.632 164.828 129.349 165.985 131.552C167.18 133.755 167.777 136.256 167.777 139.056C167.777 141.931 167.18 144.469 165.985 146.672C164.79 148.837 163.204 150.536 161.225 151.768C159.284 153 157.137 153.616 154.785 153.616ZM153.273 148.912C155.065 148.912 156.652 148.501 158.033 147.68C159.414 146.821 160.478 145.664 161.225 144.208C162.009 142.715 162.401 140.997 162.401 139.056C162.401 136.181 161.598 133.811 159.993 131.944C158.425 130.077 156.185 129.144 153.273 129.144C151.518 129.144 149.95 129.555 148.569 130.376C147.225 131.197 146.161 132.355 145.377 133.848C144.593 135.341 144.201 137.077 144.201 139.056C144.201 140.923 144.537 142.603 145.209 144.096C145.918 145.552 146.945 146.728 148.289 147.624C149.633 148.483 151.294 148.912 153.273 148.912ZM138.825 125.056H143.977L144.201 131.384V164.2H138.825V125.056ZM1.568 192.056H19.656V196.704H1.568V192.056ZM7.952 184.664H13.272V220H7.952V184.664ZM43.6188 220V203.144C43.6188 201.651 43.3761 200.419 42.8908 199.448C42.4054 198.477 41.6774 197.749 40.7068 197.264C39.7361 196.741 38.5041 196.48 37.0108 196.48C35.3681 196.48 33.8561 196.872 32.4748 197.656C31.1308 198.403 30.0294 199.429 29.1708 200.736C28.3121 202.005 27.7894 203.443 27.6028 205.048L27.5468 201.856C27.7334 200.4 28.1254 199.037 28.7228 197.768C29.3574 196.499 30.1414 195.397 31.0748 194.464C32.0454 193.531 33.1654 192.803 34.4348 192.28C35.7041 191.757 37.0854 191.496 38.5788 191.496C40.1468 191.496 41.5654 191.72 42.8348 192.168C44.1041 192.579 45.1868 193.232 46.0828 194.128C47.0161 194.987 47.7254 196.051 48.2108 197.32C48.6961 198.552 48.9388 199.971 48.9388 201.576V220H43.6188ZM22.6188 220V180.856H27.9388V220H22.6188ZM64.7531 220.56C62.3637 220.56 60.1797 219.944 58.2011 218.712C56.2224 217.48 54.6544 215.781 53.4971 213.616C52.3397 211.413 51.7611 208.893 51.7611 206.056C51.7611 203.219 52.3397 200.717 53.4971 198.552C54.6917 196.349 56.3157 194.632 58.3691 193.4C60.4224 192.131 62.7184 191.496 65.2571 191.496C68.0571 191.496 70.2224 192.149 71.7531 193.456C73.3211 194.763 74.4037 196.517 75.0011 198.72C75.6357 200.923 75.9531 203.368 75.9531 206.056C75.9531 207.549 75.7664 209.136 75.3931 210.816C75.0197 212.496 74.4224 214.083 73.6011 215.576C72.7797 217.069 71.6411 218.283 70.1851 219.216C68.7291 220.112 66.9184 220.56 64.7531 220.56ZM66.2651 215.912C68.2437 215.912 69.9051 215.483 71.2491 214.624C72.6304 213.728 73.6571 212.533 74.3291 211.04C75.0011 209.547 75.3371 207.885 75.3371 206.056C75.3371 204.077 74.9824 202.341 74.2731 200.848C73.6011 199.355 72.5744 198.197 71.1931 197.376C69.8491 196.555 68.2064 196.144 66.2651 196.144C63.3531 196.144 61.0944 197.077 59.4891 198.944C57.9211 200.811 57.1371 203.181 57.1371 206.056C57.1371 207.997 57.5291 209.715 58.3131 211.208C59.0971 212.664 60.1611 213.821 61.5051 214.68C62.8864 215.501 64.4731 215.912 66.2651 215.912ZM75.3371 192.056H80.7131V220H75.7851C75.7851 220 75.7477 219.664 75.6731 218.992C75.5984 218.283 75.5237 217.443 75.4491 216.472C75.3744 215.501 75.3371 214.643 75.3371 213.896V192.056ZM82.9649 192.056H101.053V196.704H82.9649V192.056ZM89.3489 184.664H94.6689V220H89.3489V184.664ZM143.48 215.632L142.024 215.576L149.36 192.056H155.184L145.496 220H140.456L132 196.088H133.512L124.944 220H119.904L110.328 192.056H116.208L123.32 215.576L121.864 215.632L129.592 192.056H135.92L143.48 215.632ZM169.482 220.616C166.756 220.616 164.255 220.037 161.978 218.88C159.7 217.723 157.89 216.061 156.546 213.896C155.202 211.731 154.53 209.136 154.53 206.112C154.53 203.051 155.202 200.437 156.546 198.272C157.89 196.069 159.7 194.389 161.978 193.232C164.255 192.075 166.756 191.496 169.482 191.496C172.207 191.496 174.69 192.075 176.93 193.232C179.17 194.389 180.962 196.069 182.306 198.272C183.65 200.437 184.322 203.051 184.322 206.112C184.322 209.136 183.65 211.731 182.306 213.896C180.962 216.061 179.17 217.723 176.93 218.88C174.69 220.037 172.207 220.616 169.482 220.616ZM169.482 215.968C171.162 215.968 172.711 215.595 174.13 214.848C175.586 214.064 176.743 212.944 177.602 211.488C178.498 209.995 178.946 208.203 178.946 206.112C178.946 203.984 178.498 202.173 177.602 200.68C176.743 199.187 175.586 198.048 174.13 197.264C172.711 196.48 171.162 196.088 169.482 196.088C167.802 196.088 166.234 196.48 164.778 197.264C163.322 198.011 162.146 199.131 161.25 200.624C160.354 202.117 159.906 203.947 159.906 206.112C159.906 208.203 160.335 209.995 161.194 211.488C162.09 212.944 163.266 214.064 164.722 214.848C166.178 215.595 167.764 215.968 169.482 215.968ZM187.147 192.056H192.523V220H187.147V192.056ZM201.987 196.816C200.045 196.816 198.384 197.264 197.003 198.16C195.659 199.056 194.576 200.157 193.755 201.464C192.971 202.771 192.448 204.021 192.187 205.216L192.131 202.024C192.168 201.651 192.261 201.072 192.411 200.288C192.597 199.467 192.915 198.552 193.363 197.544C193.811 196.536 194.408 195.584 195.155 194.688C195.901 193.755 196.835 192.989 197.955 192.392C199.075 191.795 200.419 191.496 201.987 191.496V196.816ZM204.706 180.856H210.026V220H204.706V180.856ZM230.186 192.056L215.402 206.112L215.514 202.752L231.25 220H224.474L210.138 204.376L222.738 192.056H230.186ZM231.01 210.928H235.938C236.125 212.421 236.797 213.653 237.954 214.624C239.111 215.557 240.735 216.024 242.826 216.024C244.17 216.024 245.215 215.875 245.962 215.576C246.709 215.24 247.231 214.792 247.53 214.232C247.866 213.672 248.034 213.056 248.034 212.384C248.034 211.525 247.81 210.872 247.362 210.424C246.914 209.939 246.279 209.547 245.458 209.248C244.637 208.912 243.666 208.595 242.546 208.296C241.314 207.96 240.082 207.568 238.85 207.12C237.618 206.672 236.479 206.131 235.434 205.496C234.426 204.861 233.605 204.077 232.97 203.144C232.373 202.173 232.074 200.997 232.074 199.616C232.074 198.459 232.317 197.376 232.802 196.368C233.325 195.36 234.053 194.501 234.986 193.792C235.957 193.045 237.077 192.485 238.346 192.112C239.615 191.701 241.015 191.496 242.546 191.496C244.674 191.496 246.466 191.888 247.922 192.672C249.378 193.419 250.479 194.483 251.226 195.864C252.01 197.245 252.421 198.832 252.458 200.624H247.754C247.493 199.056 246.951 197.917 246.13 197.208C245.309 196.461 244.077 196.088 242.434 196.088C240.829 196.088 239.597 196.405 238.738 197.04C237.879 197.675 237.45 198.533 237.45 199.616C237.45 200.437 237.749 201.109 238.346 201.632C238.943 202.117 239.746 202.547 240.754 202.92C241.762 203.293 242.901 203.685 244.17 204.096C245.365 204.507 246.503 204.936 247.586 205.384C248.706 205.795 249.695 206.299 250.554 206.896C251.45 207.456 252.141 208.203 252.626 209.136C253.149 210.032 253.41 211.152 253.41 212.496C253.41 214.139 252.999 215.576 252.178 216.808C251.357 218.003 250.162 218.936 248.594 219.608C247.063 220.28 245.197 220.616 242.994 220.616C240.978 220.616 239.261 220.373 237.842 219.888C236.461 219.403 235.285 218.768 234.314 217.984C233.381 217.2 232.653 216.379 232.13 215.52C231.645 214.624 231.309 213.765 231.122 212.944C230.973 212.123 230.935 211.451 231.01 210.928ZM34.16 282.632L32.704 282.576L40.04 259.056H45.864L36.176 287H31.136L22.68 263.088H24.192L15.624 287H10.584L1.008 259.056H6.888L14 282.576L12.544 282.632L20.272 259.056H26.6L34.16 282.632ZM68.2255 277.928H73.3215C73.0228 279.757 72.3135 281.4 71.1935 282.856C70.0735 284.312 68.5988 285.469 66.7695 286.328C64.9402 287.187 62.7935 287.616 60.3295 287.616C57.4175 287.616 54.8228 287 52.5455 285.768C50.2682 284.536 48.4762 282.837 47.1695 280.672C45.8628 278.507 45.2095 275.987 45.2095 273.112C45.2095 270.2 45.8442 267.661 47.1135 265.496C48.3828 263.293 50.1375 261.576 52.3775 260.344C54.6175 259.112 57.1748 258.496 60.0495 258.496C63.0735 258.496 65.6122 259.093 67.6655 260.288C69.7188 261.483 71.2308 263.256 72.2015 265.608C73.2095 267.923 73.6202 270.816 73.4335 274.288H50.5295C50.7162 275.968 51.2202 277.461 52.0415 278.768C52.9002 280.075 54.0202 281.101 55.4015 281.848C56.8202 282.595 58.4442 282.968 60.2735 282.968C62.3268 282.968 64.0442 282.501 65.4255 281.568C66.8068 280.635 67.7402 279.421 68.2255 277.928ZM60.1055 263.088C57.6788 263.088 55.6628 263.741 54.0575 265.048C52.4522 266.317 51.3882 268.016 50.8655 270.144H68.0575C67.9082 267.867 67.0868 266.131 65.5935 264.936C64.1002 263.704 62.2708 263.088 60.1055 263.088ZM76.8552 247.856H82.2312V287H76.8552V247.856ZM87.6724 247.856H93.0484V287H87.6724V247.856Z" fill="url(#paint0_linear_188_190)"/>
<line x1="112.5" y1="238" x2="112.5" y2="294" stroke="#0D00FF"/>
<defs>
<linearGradient id="paint0_linear_188_190" x1="128" y1="34" x2="128" y2="302" gradientUnits="userSpaceOnUse">
<stop stop-color="white" stop-opacity="0"/>
<stop offset="1" stop-color="white"/>
</linearGradient>
</defs>
</svg>
